<svg width="512" height="512" viewBox="0 0 512 512" fill="none" xmlns="http://www.w3.org/2000/svg">
<rect width="512" height="512" fill="black"/>
<rect x="120.985" y="145.979" width="30" height="175" rx="5" fill="white"/>
<path d="M127.708 170.952C124.207 163.444 127.455 154.519 134.963 151.018L144.026 146.792C146.529 145.625 149.504 146.708 150.671 149.211L201.151 257.465C202.318 259.968 201.235 262.943 198.733 264.11L180.606 272.562C178.104 273.729 175.129 272.647 173.962 270.144L127.708 170.952Z" fill="white"/>
<path d="M174.288 247.979C174.288 245.218 176.527 242.979 179.288 242.979H191.166C193.112 242.979 194.882 244.108 195.701 245.873L204.988 265.873C206.527 269.188 204.108 272.979 200.454 272.979H179.288C176.527 272.979 174.288 270.741 174.288 267.979V247.979Z" fill="white"/>
<path d="M252.08 171.973C255.581 164.465 252.333 155.54 244.825 152.039L235.762 147.813C233.259 146.646 230.284 147.729 229.117 150.231L178.637 258.486C177.47 260.989 178.553 263.964 181.056 265.131L199.182 273.583C201.684 274.75 204.659 273.667 205.826 271.165L252.08 171.973Z" fill="white"/>
<path d="M205.5 249C205.5 246.239 203.261 244 200.5 244H188.622C186.676 244 184.906 245.129 184.087 246.894L174.8 266.894C173.261 270.208 175.681 274 179.335 274H200.5C203.261 274 205.5 271.761 205.5 269V249Z" fill="white"/>
<rect x="7.5" y="-7.5" width="45" height="190" rx="12.5" transform="matrix(-1 0 0 1 274.197 146)" fill="#FF7F00" stroke="black" stroke-width="15"/>
<rect x="347.878" y="144.85" width="175.5" height="30" rx="5" transform="rotate(75 347.878 144.85)" fill="#FF7F00"/>
<rect x="303.599" y="145.3" width="173.9" height="30" rx="5" transform="rotate(82.5 303.599 145.3)" fill="#FF7F00"/>
<path d="M431.5 366H80.5C77.7386 366 75.5 363.761 75.5 361V311C75.5 308.239 77.7386 306 80.5 306H100.5C103.261 306 105.5 308.239 105.5 311V331C105.5 333.761 107.739 336 110.5 336H401.5C404.261 336 406.5 333.761 406.5 331V311C406.5 308.239 408.739 306 411.5 306H431.5C434.261 306 436.5 308.239 436.5 311V336V361C436.5 363.761 434.261 366 431.5 366Z" fill="#BFBFBF"/>
</svg>
